<?xml version="1.0" encoding="UTF-8" standalone="no"?>
<!-- Created with Inkscape (http://www.inkscape.org/) -->

<svg
   width="500"
   height="500"
   viewBox="0 0 500 500"
   version="1.1"
   id="svg1"
   inkscape:version="1.3 (0e150ed6c4, 2023-07-21)"
   sodipodi:docname="example.svg"
   xmlns:inkscape="http://www.inkscape.org/namespaces/inkscape"
   xmlns:sodipodi="http://sodipodi.sourceforge.net/DTD/sodipodi-0.dtd"
   xmlns="http://www.w3.org/2000/svg"
   xmlns:svg="http://www.w3.org/2000/svg">
  <sodipodi:namedview
     id="namedview1"
     pagecolor="#505050"
     bordercolor="#eeeeee"
     borderopacity="1"
     inkscape:showpageshadow="0"
     inkscape:pageopacity="0"
     inkscape:pagecheckerboard="0"
     inkscape:deskcolor="#d1d1d1"
     inkscape:document-units="px"
     showgrid="true"
     inkscape:zoom="0.90736163"
     inkscape:cx="268.36048"
     inkscape:cy="256.23742"
     inkscape:window-width="1920"
     inkscape:window-height="1011"
     inkscape:window-x="0"
     inkscape:window-y="0"
     inkscape:window-maximized="1"
     inkscape:current-layer="layer1">
    <inkscape:grid
       id="grid1"
       units="px"
       originx="0"
       originy="0"
       spacingx="1"
       spacingy="1"
       empcolor="#0099e5"
       empopacity="0.30196078"
       color="#0099e5"
       opacity="0.14901961"
       empspacing="5"
       dotted="false"
       gridanglex="30"
       gridanglez="30"
       visible="true" />
  </sodipodi:namedview>
  <defs
     id="defs1">
    <inkscape:path-effect
       effect="bspline"
       id="path-effect6"
       is_visible="true"
       lpeversion="1.3"
       weight="33.333333"
       steps="2"
       helper_size="0"
       apply_no_weight="true"
       apply_with_weight="true"
       only_selected="false"
       uniform="false" />
    <inkscape:path-effect
       effect="bspline"
       id="path-effect5"
       is_visible="true"
       lpeversion="1.3"
       weight="33.333333"
       steps="2"
       helper_size="0"
       apply_no_weight="true"
       apply_with_weight="true"
       only_selected="false"
       uniform="false" />
    <inkscape:path-effect
       effect="bspline"
       id="path-effect4"
       is_visible="true"
       lpeversion="1.3"
       weight="33.333333"
       steps="2"
       helper_size="0"
       apply_no_weight="true"
       apply_with_weight="true"
       only_selected="false"
       uniform="false" />
    <inkscape:path-effect
       effect="bspline"
       id="path-effect3"
       is_visible="true"
       lpeversion="1.3"
       weight="33.333333"
       steps="2"
       helper_size="0"
       apply_no_weight="true"
       apply_with_weight="true"
       only_selected="false"
       uniform="false" />
    <inkscape:path-effect
       effect="bspline"
       id="path-effect2"
       is_visible="true"
       lpeversion="1.3"
       weight="33.333333"
       steps="2"
       helper_size="0"
       apply_no_weight="true"
       apply_with_weight="true"
       only_selected="false"
       uniform="false" />
    <inkscape:path-effect
       effect="bspline"
       id="path-effect1"
       is_visible="true"
       lpeversion="1.3"
       weight="33.333333"
       steps="2"
       helper_size="0"
       apply_no_weight="true"
       apply_with_weight="true"
       only_selected="false"
       uniform="false" />
  </defs>
  <g
     inkscape:label="Layer 1"
     inkscape:groupmode="layer"
     id="layer1">
    <path
       style="fill:#e1a228;fill-opacity:1;stroke:#000000;stroke-width:3.389;stroke-linecap:round;stroke-linejoin:round;paint-order:stroke fill markers"
       d="M 375.88755,157.8762 C 386.66667,140 403.33333,120 420.00017,106.6666 436.667,93.3332 453.33333,86.666668 466.66677,83.333334 480.0002,80 490,80 498.3334,83.3334 c 8.3334,3.3334 14.99993,9.999932 18.33327,28.33357 C 520,130.0006 520,160 518.64178,199.77186 c -1.35822,39.77187 -4.07455,89.31363 -5.7531,126.43856 -1.67855,37.12493 -2.27173,59.99899 -19.24721,73.56098 -16.97547,13.562 -50.30814,16.89527 -70.30821,0.22823 -20.00006,-16.66703 -26.66659,-53.33296 -35.77916,-88.79043 -9.11257,-35.45748 -20.67058,-69.70438 -24.00386,-94.70454 -3.33329,-25.00016 1.55819,-40.75225 12.33731,-58.62846 z"
       id="path5"
       inkscape:path-effect="#path-effect6"
       inkscape:original-d="m 370,160 c 16.66667,-20 33.33333,-40 50,-60 16.667,-6.6668 33.33333,-13.333333 50,-20 10.0002,0 20,0 30,0 6.6668,6.6668 13.33333,13.333333 20,20 0,30.0006 0,60 0,90 -2.71644,49.54373 -5.43278,99.08549 -8.14916,148.62823 C 510.51545,363.31734 510.61695,386.20941 510,410 476.666,413.3334 443.33333,416.66667 410,420 403.3332,383.3326 396.66667,346.66667 390,310 378.44153,275.75172 366.88352,241.50482 355.32528,207.25723 360.21695,191.5045 365.10843,175.75241 370,160 Z" />
    <path
       style="fill:#3371d6;fill-opacity:1;stroke:#000000;stroke-width:3.389;stroke-linecap:round;stroke-linejoin:round;paint-order:stroke fill markers"
       d="M 181.66667,243.33333 C 200,213.33333 230,166.66667 253.3335,139.99993 c 23.3335,-26.66673 39.99983,-33.33326 56.66666,-33.3332 16.66684,7e-5 33.33317,6.6666 46.2153,14.54873 C 369.09759,129.09759 380,140 390.0001,150.0001 400.0002,160.0002 410,170 440.0005,231.6678 470.001,293.3356 520,406.66667 540.09884,466.75951 c 20.09883,60.09283 10.2969,66.94489 -4.6563,71.9376 -14.9532,4.99271 -35.24467,8.15509 -66.25029,6.51258 -31.00561,-1.64251 -75.85892,-8.54302 -119.21399,-11.87636 C 306.62318,530 263.33333,530 236.66656,514.9997 209.9998,499.9994 200,470 188.3332,431.6662 176.6664,393.3324 163.33333,346.66667 160.00007,316.66653 c -3.33327,-30.00013 3.33326,-43.3332 21.6666,-73.3332 z"
       id="path4"
       inkscape:path-effect="#path-effect5"
       inkscape:original-d="m 170,260 c 30,-46.66667 60,-93.33333 90,-140 16.667,-6.6668 33.33333,-13.33333 50,-20 16.667,6.6668 33.33333,13.33333 50,20 9.59837,8.59682 20,20 30,30 10.0002,10.0002 20,20 30,30 50.001,113.3356 100,226.66667 150,340 -9.80233,6.85234 -19.60426,13.7044 -29.40639,20.55661 C 520.29995,542.47461 500.19787,546.8522 480,550 c -42.02215,-5.0757 -86.66667,-13.33333 -130,-20 -43.37682,0.8199 -86.66667,0 -130,0 -10.0002,-30.0006 -20,-60 -30,-90 -13.3336,-46.6676 -26.66667,-93.33333 -40,-140 6.6668,-13.3336 13.33333,-26.66667 20,-40 z" />
    <path
       style="fill:#d63384;fill-opacity:1;stroke:#000000;stroke-width:3.389;stroke-linecap:round;stroke-linejoin:round;paint-order:stroke fill markers"
       d="M 8.3333358,172.44394 C 20.000002,160.77727 39.999998,140.38864 58.333499,138.52782 76.667,136.667 93.333331,153.33333 142.82528,216.66777 192.31722,280.0022 274.63115,390 321.29793,451.6668 c 46.66678,61.6668 57.68431,74.99987 -3.47481,81.66653 C 256.664,540 123.33333,540 55.385056,536.6666 -12.563217,533.3332 -15.126331,526.66667 -15.126306,468.33223 -15.126281,409.9978 -12.563166,300 -9.6148819,243.52762 -6.6665978,187.05524 -3.33333,184.1106 8.3333358,172.44394 Z"
       id="path3"
       inkscape:path-effect="#path-effect4"
       inkscape:original-d="M 0,181.16591 C 20,160.77727 40,140.38864 60,120 c 16.667,16.667 33.333333,33.33333 50,50 82.31722,110.0022 164.63115,220 246.94673,330 11.01798,13.3336 22.03551,26.66667 33.05327,40 -133.336,0 -266.66667,0 -400,0 -2.563217,-6.6668 -5.126332,-13.33333 -7.689498,-20 2.563217,-110.0022 5.126332,-220 7.689498,-330 3.3334,-2.94476 6.6666667,-5.8894 10,-8.83409 z" />
  </g>
</svg>
